/* XPM */
<<<<<<< HEAD
static char *_ed787e9cb8943d7bbf64728665d41edB6IRzUfLApYJuruU[] = {
/* columns rows colors chars-per-pixel */
"32 32 148 2 ",
"   c None",
".  c black",
"X  c #000100",
"o  c #000200",
"O  c #000300",
"+  c #000400",
"@  c #000500",
"#  c #000600",
"$  c #000800",
"%  c #000900",
"&  c #000A00",
"*  c #000B00",
"=  c #000C00",
"-  c #000D00",
";  c #000E00",
":  c #000F00",
">  c #001200",
",  c #001400",
"<  c #001500",
"1  c #001600",
"2  c #001700",
"3  c #001800",
"4  c #001A00",
"5  c #001B00",
"6  c #001C00",
"7  c #001D00",
"8  c #001E00",
"9  c #002100",
"0  c #002200",
"q  c #002300",
"w  c #002500",
"e  c #002600",
"r  c #002700",
"t  c #002A00",
"y  c #002C00",
"u  c #003000",
"i  c #003100",
"p  c #003200",
"a  c #003600",
"s  c #003800",
"d  c #003A00",
"f  c #003E00",
"g  c #003F00",
"h  c #004000",
"j  c #004300",
"k  c #004400",
"l  c #004600",
"z  c #004900",
"x  c #004A00",
"c  c #004B00",
"v  c #004E00",
"b  c #004F00",
"n  c #005700",
"m  c #005900",
"M  c #005A00",
"N  c #005D00",
"B  c #005E00",
"V  c #006100",
"C  c #006200",
"Z  c #006500",
"A  c #006600",
"S  c #006700",
"D  c #006900",
"F  c #006C00",
"G  c #006D00",
"H  c #006E00",
"J  c #007200",
"K  c #007500",
"L  c #007600",
"P  c #007700",
"I  c #007E00",
"U  c #008000",
"Y  c #008300",
"T  c #008400",
"R  c #008500",
"E  c #008700",
"W  c #008800",
"Q  c #008900",
"!  c #008E00",
"~  c #009100",
"^  c #009400",
"/  c #009600",
"(  c #009800",
")  c #009B00",
"_  c #009E00",
"`  c #009F00",
"'  c #00A000",
"]  c #00A400",
"[  c #00A500",
"{  c #00AA00",
"}  c #00AC00",
"|  c #00AE00",
" . c #00AF00",
".. c #00B000",
"X. c #00B700",
"o. c #00B800",
"O. c #00B900",
"+. c #00BA00",
"@. c #00BB00",
"#. c #00BC00",
"$. c #00BD00",
"%. c #00BE00",
"&. c #00BF00",
"*. c #00C100",
"=. c #00C400",
"-. c #00C900",
";. c #00CA00",
":. c #00CC00",
">. c #00CE00",
",. c #00D000",
"<. c #00D100",
"1. c #00D200",
"2. c #00D300",
"3. c #00D400",
"4. c #00D500",
"5. c #00D600",
"6. c #00D700",
"7. c #00D800",
"8. c #00D900",
"9. c #00DA00",
"0. c #00DB00",
"q. c #00DC00",
"w. c #00DD00",
"e. c #00DE00",
"r. c #00E000",
"t. c #00E200",
"y. c #00E400",
"u. c #00E500",
"i. c #00E600",
"p. c #00E700",
"a. c #00E900",
"s. c #00EA00",
"d. c #00EC00",
"f. c #00EF00",
"g. c #00F000",
"h. c #00F200",
"j. c #00F300",
"k. c #00F500",
"l. c #00F600",
"z. c #00F700",
"x. c #00F800",
"c. c #00F900",
"v. c #00FA00",
"b. c #00FB00",
"n. c #00FC00",
"m. c #00FD00",
"M. c #00FE00",
"N. c green",
/* pixels */
"                        . . . . . . . .                         ",
"                  . . . . . . . . . . . . . .                   ",
"              . . . . . . . & > < < = . . . . . .               ",
"            . . . . # 6 m ~ X.>.<.<.*.' G i & . . .             ",
"          . . . . q U 7.n.n.n.n.n.n.n.n.n.f.| c & . .           ",
"        . . . # B 3.n.n.n.n.n.n.n.n.n.n.n.n.n.l._ t . .         ",
"      . . . & I l.n.n.n.n.n.n.n.n.n.n.n.n.n.n.n.n.<.h . .       ",
"    . . . # U x.n.n.n.n.n.n.g.r.7.e.f.n.n.n.n.n.n.n.r.x . .     ",
"    . . . B g.n.n.n.n.n.3.U h q 5 6 i C ..g.n.n.n.n.x.I . .     ",
"  . . . r 7.n.n.n.n.g.! 6 . . . . . . . & c =.n.n.u.D & . . .   ",
"  . . . Q n.n.n.n.g.G # . . . . . . . . . . 6 [ *.s . . . . .   ",
"  . . q e.n.n.n.n.T # . . . . . . . . . . . & J x . . . . . .   ",
". . . B n.n.n.n.>.5 . . . . . > q 6 # . . q _ n.O.> . . . . . . ",
". . . ( n.n.n.n.P . . . . & D >.r.7.' a l >.n.n.x.C . . . . . . ",
". . & &.n.n.n.g.s . . . . J l.n.n.n.g.P _ n.n.n.n.O.& . . . . . ",
". . < <.n.n.n.e.6 . . . 5 <.n.n.n.7.m # i a.n.n.n.u.t . . . . . ",
". . < 3.n.n.n.3.5 . . . t u.n.n.&.i . . # | n.n.n.x.x . . . . . ",
". . < <.n.n.n.e.6 . . . < >.n.n.T . . . . T n.n.n.n.B . . . . . ",
". . = &.n.n.n.l.f . . . . x >.e.D . . . . T n.n.n.n.m . . . . . ",
". . . / n.n.n.n.T . . . . . < 6 # . . . & ..n.n.n.x.x . . . . . ",
"  . . m n.n.n.n.e.y . . . . . . . . . . a u.n.n.n.r.r . . . .   ",
"  . . 5 <.n.n.n.n.| < . . . . . . . . = [ n.n.n.n...# . . . .   ",
"  . . . P x.n.n.n.n.| y . . . . . . 5 / x.n.n.n.n.B . . . . .   ",
"    . . 5 *.n.n.n.n.n.e.Q h r q a G -.n.n.n.n.n.O.> . . . .     ",
"    . . . s e.n.n.n.n.n.n.x.a.r.g.n.n.n.n.n.n.u.h . . . . .     ",
"      . . . x e.n.n.n.n.n.n.n.n.n.n.n.n.n.n.a.m . . . . .       ",
"        . . . s &.x.n.n.n.n.n.n.n.n.n.n.n.3.c # . . . .         ",
"          . . . < J >.x.n.n.n.n.n.n.n.r.! t . . . . .           ",
"            . . . . < c Q ..=.-.&._ Z r # . . . . .             ",
"              . . . . . . # = = & . . . . . . . .               ",
"                  . . . . . . . . . . . . . .                   ",
"                        . . . . . . . .                         "
};
=======
static char * C:\Users\Shazarot\Desktop\but_master\share\pixmaps\bitcoin32_xpm[] = {
"32 32 182 2",
"  	c None",
". 	c #030949",
"+ 	c #030948",
"@ 	c #030947",
"# 	c #040846",
"$ 	c #040745",
"% 	c #040744",
"& 	c #030742",
"* 	c #030741",
"= 	c #040A4B",
"- 	c #04094A",
"; 	c #040640",
"> 	c #04063F",
", 	c #04063E",
"' 	c #030A4C",
") 	c #04063D",
"! 	c #03063C",
"~ 	c #03063B",
"{ 	c #03063A",
"] 	c #030639",
"^ 	c #030638",
"/ 	c #040537",
"( 	c #040536",
"_ 	c #040535",
": 	c #030535",
"< 	c #030534",
"[ 	c #030533",
"} 	c #030D4F",
"| 	c #046ED0",
"1 	c #0552A7",
"2 	c #0E2668",
"3 	c #0D1F54",
"4 	c #072F6D",
"5 	c #082D67",
"6 	c #030635",
"7 	c #030532",
"8 	c #04327E",
"9 	c #0577D8",
"0 	c #409EE5",
"a 	c #3C79B1",
"b 	c #050B46",
"c 	c #06093A",
"d 	c #3C78AC",
"e 	c #4093D4",
"f 	c #09468B",
"g 	c #05174B",
"h 	c #030531",
"i 	c #055CB4",
"j 	c #248DD6",
"k 	c #51CAF5",
"l 	c #368FBD",
"m 	c #040943",
"n 	c #050839",
"o 	c #378FBB",
"p 	c #237FBF",
"q 	c #073878",
"r 	c #030530",
"s 	c #041C5F",
"t 	c #096DC2",
"u 	c #39CDED",
"v 	c #3BD2EF",
"w 	c #1D6C96",
"x 	c #1D6B92",
"y 	c #0B5BA7",
"z 	c #041346",
"A 	c #03052F",
"B 	c #04418D",
"C 	c #199CCC",
"D 	c #27D9E9",
"E 	c #26D0E2",
"F 	c #06184C",
"G 	c #061745",
"H 	c #25D0E2",
"I 	c #189FD2",
"J 	c #06387B",
"K 	c #03052E",
"L 	c #04104D",
"M 	c #0858A4",
"N 	c #14C4D5",
"O 	c #16DFE4",
"P 	c #0B6787",
"Q 	c #0A6783",
"R 	c #12CAE0",
"S 	c #0566B9",
"T 	c #040E3F",
"U 	c #044392",
"V 	c #087FD5",
"W 	c #11CEE0",
"X 	c #11C4CC",
"Y 	c #041143",
"Z 	c #03103D",
"` 	c #0FC4CB",
" .	c #10C8D8",
"..	c #086AB5",
"+.	c #052966",
"@.	c #03042D",
"#.	c #040B44",
"$.	c #027ADE",
"%.	c #038DF2",
"&.	c #09B6E3",
"*.	c #0D9DAC",
"=.	c #041141",
"-.	c #04103D",
";.	c #0D9CAA",
">.	c #0CAACC",
",.	c #0960AC",
"'.	c #084790",
").	c #030735",
"!.	c #04327A",
"~.	c #0483EB",
"{.	c #068AE2",
"].	c #0B88B8",
"^.	c #094E7D",
"/.	c #072B5C",
"(.	c #074D7C",
"_.	c #0B87B7",
":.	c #0579C7",
"<.	c #0862B9",
"[.	c #0959AA",
"}.	c #042058",
"|.	c #03042C",
"1.	c #0463BD",
"2.	c #037DE2",
"3.	c #0475D6",
"4.	c #0760B4",
"5.	c #075FB3",
"6.	c #066FCD",
"7.	c #026CC7",
"8.	c #084791",
"9.	c #03205D",
"0.	c #0377D8",
"a.	c #0378D9",
"b.	c #066AC3",
"c.	c #085AAB",
"d.	c #076DC8",
"e.	c #0476D6",
"f.	c #0861B8",
"g.	c #04184D",
"h.	c #064C9B",
"i.	c #0672D1",
"j.	c #0771D0",
"k.	c #0759A9",
"l.	c #065CAE",
"m.	c #027EE3",
"n.	c #06428A",
"o.	c #041147",
"p.	c #0268C2",
"q.	c #016CC8",
"r.	c #0461B5",
"s.	c #0570CD",
"t.	c #027FE4",
"u.	c #0268C1",
"v.	c #031040",
"w.	c #05377D",
"x.	c #0666BF",
"y.	c #0664BB",
"z.	c #0683EA",
"A.	c #033B7F",
"B.	c #03042B",
"C.	c #03093A",
"D.	c #0758A9",
"E.	c #0861B6",
"F.	c #0480E7",
"G.	c #036AC5",
"H.	c #030936",
"I.	c #042561",
"J.	c #075CAE",
"K.	c #0578DA",
"L.	c #032F6F",
"M.	c #05458E",
"N.	c #0656A5",
"O.	c #0572D1",
"P.	c #0267C1",
"Q.	c #030630",
"R.	c #04174B",
"S.	c #06509C",
"T.	c #0572D0",
"U.	c #03235B",
"V.	c #063373",
"W.	c #064D9A",
"X.	c #040E3B",
"Y.	c #031140",
"                        . + @ # $ % & *                         ",
"                  = - . + @ # $ % & * ; > > ,                   ",
"              ' = - . + @ # $ % & * ; > > , ) ! ~               ",
"            ' = - . + @ # $ % & * ; > > , ) ! ~ { ]             ",
"          ' = - . + @ # $ % & * ; > > , ) ! ~ { ] ^ /           ",
"        ' = - . + @ # $ % & * ; > > , ) ! ~ { ] ^ / ( _         ",
"      ' = - . + @ # $ % & * ; > > , ) ! ~ { ] ^ / ( _ : <       ",
"    ' = - . + @ # $ % & * ; > > , ) ! ~ { ] ^ / ( _ : < [ [     ",
"    = - } | 1 2 $ % & * ; > > , ) ! ~ { ] ^ / ( 3 4 5 6 [ 7     ",
"  = - . + 8 9 0 a b * ; > > , ) ! ~ { ] ^ / c d e f g [ 7 7 h   ",
"  - . + @ # i j k l m > > , ) ! ~ { ] ^ / n o k p q [ 7 7 h r   ",
"  . + @ # $ s t u v w > , ) ! ~ { ] ^ / ( x v u y z 7 7 h r A   ",
". + @ # $ % & B C D E F ) ! ~ { ] ^ / ( G H D I J 7 7 h r A A K ",
"+ @ # $ % & * L M N O P ! ~ { ] ^ / ( _ Q O R S T 7 h r A A K K ",
"@ # $ % & * ; > U V W X Y { ] ^ / ( _ Z `  ...+.7 h r A A K K @.",
"# $ % & * ; > > #.$.%.&.*.=.^ / ( _ -.;.>.,.'.).h r A A K K @.@.",
"$ % & * ; > > , ) !.~.~.{.].^././.(._.:.<.[.}.h r A A K K @.@.|.",
"% & * ; > > , ) ! ~ 1.2.2.3.4.5.5.4.6.7.<.8.7 r A A K K @.@.|.|.",
"& * ; > > , ) ! ~ { 9.0.a.a.b.c.c.d.e.7.f.g.r A A K K @.@.|.|.|.",
"* ; > > , ) ! ~ { ] ^ h.i.i.j.k.l.m.e.7.n.r A A K K @.@.|.|.|.|.",
"  > > , ) ! ~ { ] ^ / o.p.q.q.r.s.t.e.u.v.A A K K @.@.|.|.|.|.  ",
"  > , ) ! ~ { ] ^ / ( _ w.x.x.y.z.t.e.A.A A K K @.@.|.|.|.|.B.  ",
"  , ) ! ~ { ] ^ / ( _ : C.D.E.E.F.t.G.H.A K K @.@.|.|.|.|.B.B.  ",
"    ! ~ { ] ^ / ( _ : < [ I.J.J.K.t.L.A K K @.@.|.|.|.|.B.B.    ",
"    ~ { ] ^ / ( _ : < [ [ [ M.N.O.P.Q.K K @.@.|.|.|.|.B.B.B.    ",
"      ] ^ / ( _ : < [ [ 7 7 R.S.T.U.K K @.@.|.|.|.|.B.B.B.      ",
"        / ( _ : < [ [ 7 7 h r V.W.K K @.@.|.|.|.|.B.B.B.        ",
"          _ : < [ [ 7 7 h r A X.Y.K @.@.|.|.|.|.B.B.B.          ",
"            < [ [ 7 7 h r A A K K @.@.|.|.|.|.B.B.B.            ",
"              [ 7 7 h r A A K K @.@.|.|.|.|.B.B.B.              ",
"                  h r A A K K @.@.|.|.|.|.B.B.                  ",
"                        K K @.@.|.|.|.|.                        "};
>>>>>>> c264a3afad7e2cfd78cec9f09f6803faef2492ad
