/* XPM */
static char *ef7142b99d604959f297da9151bb26cdIssZHCqoZ8KHHrZ2[] = {
/* columns rows colors chars-per-pixel */
"16 16 103 2 ",
"   c None",
".  c black",
"X  c #000100",
"o  c #000200",
"O  c #000300",
"+  c #000400",
"@  c #000600",
"#  c #000700",
"$  c #000900",
"%  c #000A00",
"&  c #000C00",
"*  c #000F00",
"=  c #001300",
"-  c #001500",
";  c #001900",
":  c #001A00",
">  c #001B00",
",  c #001C00",
"<  c #001D00",
"1  c #002000",
"2  c #002100",
"3  c #002200",
"4  c #002500",
"5  c #002600",
"6  c #002700",
"7  c #002900",
"8  c #002D00",
"9  c #002F00",
"0  c #003200",
"q  c #003300",
"w  c #003400",
"e  c #003500",
"r  c #003700",
"t  c #003E00",
"y  c #003F00",
"u  c #004000",
"i  c #004100",
"p  c #004300",
"a  c #004600",
"s  c #005500",
"d  c #005600",
"f  c #005700",
"g  c #005800",
"h  c #005A00",
"j  c #005B00",
"k  c #005C00",
"l  c #005D00",
"z  c #005E00",
"x  c #006000",
"c  c #006200",
"v  c #006300",
"b  c #006A00",
"n  c #006B00",
"m  c #006C00",
"M  c #006D00",
"N  c #006F00",
"B  c #007400",
"V  c #007500",
"C  c #007900",
"Z  c #007E00",
"A  c #007F00",
"S  c #008400",
"D  c #008600",
"F  c #008A00",
"G  c #008C00",
"H  c #009A00",
"J  c #00A200",
"K  c #00A700",
"L  c #00A800",
"P  c #00A900",
"I  c #00AF00",
"U  c #00B300",
"Y  c #00BC00",
"T  c #00C800",
"R  c #00C900",
"E  c #00D000",
"W  c #00D200",
"Q  c #00D500",
"!  c #00D600",
"~  c #00D700",
"^  c #00DE00",
"/  c #00E200",
"(  c #00E300",
")  c #00E400",
"_  c #00E700",
"`  c #00E900",
"'  c #00EA00",
"]  c #00ED00",
"[  c #00EE00",
"{  c #00EF00",
"}  c #00F000",
"|  c #00F100",
" . c #00F200",
".. c #00F300",
"X. c #00F500",
"o. c #00F600",
"O. c #00F700",
"+. c #00F900",
"@. c #00FB00",
"#. c #00FC00",
"$. c #00FD00",
"%. c #00FE00",
"&. c green",
/* pixels */
"          . . . . . .           ",
"      . . = p n B v 0 % .       ",
"    . # j T O.&.&.&.] I t .     ",
"  . # A O.&.@.) ^ ' &.&.' v .   ",
"  . k O.&.E v 6 , 0 A / } V #   ",
". - T &.R 8 . . . . . v k . . . ",
". a O.&.v . % d A p d ~ S . . . ",
". M &.) 6 . j O.] M J &.~ > . . ",
". V &.^ , . C &.n . d &.] 0 . . ",
". k &.} p . , M 3 . d &.} r . . ",
". 7 ) &.K & . . . & P &.~ > . . ",
"  . G &.@.P p 3 r H @.&.S . .   ",
"  . , U &.&.} / ] &.&.Y > . .   ",
"    . > F / @.&.&.' H 3 . .     ",
"      . # 6 d M k 8 # . .       ",
"          . . . . . .           "
};
